<?xml version="1.0" encoding="UTF-8" standalone="no"?>
<svg
   xmlns:dc="http://purl.org/dc/elements/1.1/"
   xmlns:cc="http://creativecommons.org/ns#"
   xmlns:rdf="http://www.w3.org/1999/02/22-rdf-syntax-ns#"
   xmlns:svg="http://www.w3.org/2000/svg"
   xmlns="http://www.w3.org/2000/svg"
   xmlns:sodipodi="http://sodipodi.sourceforge.net/DTD/sodipodi-0.dtd"
   xmlns:inkscape="http://www.inkscape.org/namespaces/inkscape"
   inkscape:export-ydpi="576"
   inkscape:export-xdpi="576"
   inkscape:export-filename="D:\Project Real\Januari 2\export\extended line\png\30 - Tequila Sunrise.png"
   width="64pt"
   height="64pt"
   viewBox="0 0 22.577778 22.577778"
   version="1.1"
   id="svg831"
   inkscape:version="1.0 (4035a4fb49, 2020-05-01)"
   sodipodi:docname="21 - Cappucino.svg">
  <defs
     id="defs825">
    <pattern
       id="EMFhbasepattern"
       patternUnits="userSpaceOnUse"
       width="6"
       height="6"
       x="0"
       y="0" />
    <pattern
       id="EMFhbasepattern-9"
       patternUnits="userSpaceOnUse"
       width="6"
       height="6"
       x="0"
       y="0" />
    <pattern
       id="EMFhbasepattern-0"
       patternUnits="userSpaceOnUse"
       width="6"
       height="6"
       x="0"
       y="0" />
    <pattern
       id="EMFhbasepattern-7"
       patternUnits="userSpaceOnUse"
       width="6"
       height="6"
       x="0"
       y="0" />
    <pattern
       id="EMFhbasepattern-2"
       patternUnits="userSpaceOnUse"
       width="6"
       height="6"
       x="0"
       y="0" />
    <pattern
       id="EMFhbasepattern-98"
       patternUnits="userSpaceOnUse"
       width="6"
       height="6"
       x="0"
       y="0" />
    <pattern
       id="EMFhbasepattern-6"
       patternUnits="userSpaceOnUse"
       width="6"
       height="6"
       x="0"
       y="0" />
    <pattern
       id="EMFhbasepattern-01"
       patternUnits="userSpaceOnUse"
       width="6"
       height="6"
       x="0"
       y="0" />
    <pattern
       id="EMFhbasepattern-07"
       patternUnits="userSpaceOnUse"
       width="6"
       height="6"
       x="0"
       y="0" />
    <pattern
       id="EMFhbasepattern-8"
       patternUnits="userSpaceOnUse"
       width="6"
       height="6"
       x="0"
       y="0" />
    <pattern
       id="EMFhbasepattern-4"
       patternUnits="userSpaceOnUse"
       width="6"
       height="6"
       x="0"
       y="0" />
    <pattern
       id="EMFhbasepattern-40"
       patternUnits="userSpaceOnUse"
       width="6"
       height="6"
       x="0"
       y="0" />
    <pattern
       id="EMFhbasepattern-08"
       patternUnits="userSpaceOnUse"
       width="6"
       height="6"
       x="0"
       y="0" />
    <pattern
       id="EMFhbasepattern-04"
       patternUnits="userSpaceOnUse"
       width="6"
       height="6"
       x="0"
       y="0" />
    <pattern
       id="EMFhbasepattern-014"
       patternUnits="userSpaceOnUse"
       width="6"
       height="6"
       x="0"
       y="0" />
    <pattern
       id="EMFhbasepattern-27"
       patternUnits="userSpaceOnUse"
       width="6"
       height="6"
       x="0"
       y="0" />
    <pattern
       id="EMFhbasepattern-09"
       patternUnits="userSpaceOnUse"
       width="6"
       height="6"
       x="0"
       y="0" />
    <pattern
       id="EMFhbasepattern-5"
       patternUnits="userSpaceOnUse"
       width="6"
       height="6"
       x="0"
       y="0" />
    <pattern
       id="EMFhbasepattern-018"
       patternUnits="userSpaceOnUse"
       width="6"
       height="6"
       x="0"
       y="0" />
  </defs>
  <sodipodi:namedview
     id="base"
     pagecolor="#ffffff"
     bordercolor="#666666"
     borderopacity="1.0"
     inkscape:pageopacity="0.0"
     inkscape:pageshadow="2"
     inkscape:zoom="6.2578125"
     inkscape:cx="42.666667"
     inkscape:cy="42.666667"
     inkscape:document-units="pt"
     inkscape:current-layer="layer1"
     showgrid="false"
     units="pt"
     inkscape:window-width="1366"
     inkscape:window-height="705"
     inkscape:window-x="-8"
     inkscape:window-y="-8"
     inkscape:window-maximized="1"
     inkscape:pagecheckerboard="true"
     inkscape:showpageshadow="false"
     inkscape:object-paths="true"
     inkscape:snap-intersection-paths="true"
     inkscape:snap-smooth-nodes="true"
     inkscape:snap-midpoints="true"
     showguides="true"
     inkscape:snap-bbox="true"
     inkscape:bbox-nodes="true"
     inkscape:snap-nodes="false"
     inkscape:snap-global="true"
     inkscape:document-rotation="0">
    <inkscape:grid
       type="xygrid"
       id="grid1378" />
    <sodipodi:guide
       position="0.97013831,21.607643"
       orientation="78.000048,0"
       id="guide1380"
       inkscape:locked="false" />
    <sodipodi:guide
       position="0.97013831,0.97013129"
       orientation="0,78.000005"
       id="guide1382"
       inkscape:locked="false" />
    <sodipodi:guide
       position="21.607639,0.97013129"
       orientation="-78.000048,0"
       id="guide1384"
       inkscape:locked="false" />
    <sodipodi:guide
       position="21.607639,21.607643"
       orientation="0,-78.000005"
       id="guide1386"
       inkscape:locked="false" />
  </sodipodi:namedview>
  <metadata
     id="metadata828">
    <rdf:RDF>
      <cc:Work
         rdf:about="">
        <dc:format>image/svg+xml</dc:format>
        <dc:type
           rdf:resource="http://purl.org/dc/dcmitype/StillImage" />
        <dc:title></dc:title>
      </cc:Work>
    </rdf:RDF>
  </metadata>
  <g
     inkscape:label="Icon"
     inkscape:groupmode="layer"
     id="layer1"
     transform="translate(0,-274.42223)">
    <path
       sodipodi:nodetypes="cccccccccccscccsccccccsccccccscscscscccccccssccsccccccccsccccccscscccccccsccsccccccscccccc"
       d="m 8.8908687,275.55082 c -0.5400932,0.89587 -0.3488816,1.75921 -0.03444,2.62771 0.2768584,0.69642 0.4024537,1.46654 0.03444,2.03054 -0.10261,0.15268 -0.06186,0.35963 0.090966,0.462 0.1532154,0.10159 0.3598443,0.0597 0.4613427,-0.0935 0.5423056,-0.89556 0.3514238,-1.75709 0.037043,-2.62511 -0.2783552,-0.69734 -0.4052983,-1.46576 -0.037043,-2.0312 0.1021635,-0.15255 0.061449,-0.35901 -0.090973,-0.46135 -0.1983645,-0.11179 -0.2997968,-0.087 -0.4613393,0.091 z m 3.4113333,0.77322 v 10e-6 c -0.122521,0.5204 -0.05844,0.98787 -0.0052,1.40482 0.05324,0.41698 0.09563,0.78567 0.0052,1.16895 -0.04222,0.1789 0.06864,0.35816 0.247565,0.40027 0.179105,0.0421 0.358447,-0.069 0.400265,-0.24821 0.122798,-0.52048 0.06105,-0.98713 0.0078,-1.40418 -0.05325,-0.41704 -0.09803,-0.78374 -0.0078,-1.167 0.04222,-0.1789 -0.06864,-0.35814 -0.281842,-0.4053 -0.200204,-0.003 -0.330986,0.10273 -0.365988,0.25064 z m -1.581561,2.52506 c 0.13385,0.54068 0.237907,0.97086 0.0195,1.44834 -0.07571,0.16688 -0.0024,0.36358 0.164394,0.4399 0.167394,0.0771 0.365506,0.004 0.441848,-0.16439 0.317655,-0.69442 0.154024,-1.3455 0.02013,-1.88631 -0.133877,-0.54079 -0.238024,-0.97165 -0.02013,-1.449 0.07528,-0.16672 0.002,-0.36292 -0.164395,-0.43925 -0.207812,-0.0775 -0.355801,0.0357 -0.441847,0.1644 -0.316961,0.69442 -0.153342,1.34563 -0.0195,1.88631 z m -3.9564974,3.20729 c -1.1868457,0 -2.1448797,0.9522 -2.3047655,2.0923 H 17.02804 c -0.159526,-1.1401 -1.115318,-2.0923 -2.302163,-2.0923 -0.484624,0 -0.897698,0.25518 -1.250173,0.56921 -0.370171,-0.30591 -0.823442,-0.56921 -1.389877,-0.56921 -0.521886,0 -0.962895,0.24607 -1.341143,0.54517 -0.378477,-0.2972 -0.8169642,-0.54517 -1.3404931,-0.54517 -0.4839725,0 -0.8978445,0.25603 -1.2501729,0.56921 -0.3701703,-0.30591 -0.8234423,-0.56921 -1.3898744,-0.56921 z m 1.3138622,5.84737 c -0.1469409,0.512 -0.4474567,0.76522 -0.9480268,0.80637 -0.6118769,0.0162 -1.0029432,-0.40749 -1.0071551,-0.90255 v -2.99353 l -2.3418002,-6.3e-4 -0.01104,4.19042 c 0,0.59603 0.1423133,1.66168 1.179347,2.61276 1.294716,1.18741 3.5106676,1.72193 5.7219493,1.72192 2.398089,-0.058 4.365051,-0.52782 5.875944,-1.87136 h 0.679016 c 0.846623,-0.0113 1.659348,-0.5865 2.263829,-1.39767 0.604481,-0.81118 0.974984,-1.84432 0.972718,-2.59327 -0.0043,-1.41865 -1.274209,-2.52431 -2.971436,-2.65565 -2.784306,-0.0254 -5.646727,-0.006 -8.0429676,-0.006 v 2.32815 c 0.018333,0.5256 -0.5379842,0.92944 -1.0094209,0.90384 -0.1576169,-0.008 -0.2431107,-0.0946 -0.3609516,-0.1423 z m -1.2891701,-3.08971 v 2.93246 c 9.98e-4,0.22752 0.1547158,0.29434 0.3190396,0.29239 0.1806854,-0.008 0.3245124,-0.0781 0.3164414,-0.28979 l 0.00519,-0.6238 c 0.00692,-0.38921 0.562024,-0.45192 0.6556253,-0.0741 0.054976,0.24527 0.1403072,0.32001 0.3534794,0.32165 0.1654949,-0.009 0.2857911,-0.0785 0.3437317,-0.29955 v -2.25928 z m 10.6446663,1.35285 c 1.04767,-0.029 1.740419,0.51171 1.757001,1.3145 0.0014,0.43879 -0.228882,1.15068 -0.604296,1.70891 -0.358549,0.53317 -0.826053,0.90288 -1.272915,0.94088 0.122106,-0.45433 0.121528,-0.85726 0.121515,-1.12509 z m -10.6693584,4.54129 h 7.9838234 c 0.182725,7.1e-4 0.330676,0.14867 0.331389,0.33139 6.66e-4,0.18374 -0.14765,0.33327 -0.331389,0.33399 H 6.7641436 c -0.1847541,7.3e-4 -0.3347092,-0.14923 -0.3339872,-0.33399 6.653e-4,-0.18374 0.1502478,-0.3321 0.3339872,-0.33139 z m -4.6491639,3.08971 c 0.049853,0.50213 0.4752958,0.90124 0.9896125,0.90124 h 1.3560867 l 1.2352283,1.23262 c 0.062275,0.0626 0.1468978,0.098 0.2352194,0.0981 H 16.245708 c 0.08787,-5.3e-4 0.171962,-0.0358 0.233919,-0.0981 l 1.234579,-1.23262 h 1.358685 c 0.514307,0 0.937407,-0.39913 0.987014,-0.90124 z"
       style="color:#000000;font-style:normal;font-variant:normal;font-weight:normal;font-stretch:normal;font-size:medium;line-height:normal;font-family:sans-serif;font-variant-ligatures:normal;font-variant-position:normal;font-variant-caps:normal;font-variant-numeric:normal;font-variant-alternates:normal;font-variant-east-asian:normal;font-feature-settings:normal;font-variation-settings:normal;text-indent:0;text-align:start;text-decoration:none;text-decoration-line:none;text-decoration-style:solid;text-decoration-color:#000000;letter-spacing:normal;word-spacing:normal;text-transform:none;writing-mode:lr-tb;direction:ltr;text-orientation:mixed;dominant-baseline:auto;baseline-shift:baseline;text-anchor:start;white-space:normal;shape-padding:0;shape-margin:0;inline-size:0;clip-rule:nonzero;display:inline;overflow:visible;visibility:visible;isolation:auto;mix-blend-mode:normal;color-interpolation:sRGB;color-interpolation-filters:linearRGB;solid-color:#000000;solid-opacity:1;vector-effect:none;fill:#000000;fill-opacity:1;fill-rule:nonzero;stroke:none;stroke-width:0.529167;stroke-linecap:round;stroke-linejoin:round;stroke-miterlimit:4;stroke-dasharray:none;stroke-dashoffset:0;stroke-opacity:1;color-rendering:auto;image-rendering:auto;shape-rendering:auto;text-rendering:auto;enable-background:accumulate;stop-color:#000000"
       id="path1213" />
  </g>
</svg>
