<svg xmlns="http://www.w3.org/2000/svg" viewBox="0 0 24 24">
            <path d="m12.96 4.7 2.88-2.963L14.444.303l-3.294 3.388A8.35 8.35 0 0 0 8 3.077c-3.636 0-6.742 2.327-8 5.61A8.875 8.875 0 0 0 2.684 12.4L.303 14.848l1.394 1.434 2.714-2.791A8.35 8.35 0 0 0 8 14.297c3.636 0 6.742-2.326 8-5.61A8.86 8.86 0 0 0 12.96 4.7Zm-3.387.615A3.537 3.537 0 0 0 8 4.947c-2.007 0-3.636 1.676-3.636 3.74 0 .58.128 1.128.357 1.618l1.14-1.173a2.327 2.327 0 0 1-.043-.445c0-1.241.975-2.244 2.182-2.244.148 0 .293.015.433.044l1.14-1.172Zm.414 2.442 1.068-1.099c.368.585.581 1.281.581 2.03 0 2.064-1.629 3.74-3.636 3.74-.727 0-1.404-.22-1.973-.599l1.068-1.098c.276.129.582.2.905.2 1.207 0 2.182-1.002 2.182-2.244 0-.332-.07-.647-.195-.93Z" fill="currentColor"></path>
        </svg>