<svg xmlns="http://www.w3.org/2000/svg" viewBox="0 0 24 24">
            <path d="M11.999 6.911a5.305 5.305 0 0 0-2.99.925A5.467 5.467 0 0 0 7.03 10.3a5.592 5.592 0 0 0-.307 3.172 5.524 5.524 0 0 0 1.473 2.81 5.348 5.348 0 0 0 2.754 1.502 5.282 5.282 0 0 0 3.109-.312 5.406 5.406 0 0 0 2.415-2.021 5.568 5.568 0 0 0-.671-6.93 5.333 5.333 0 0 0-3.803-1.609Zm0 8.445a2.857 2.857 0 0 1-1.61-.498 2.944 2.944 0 0 1-1.067-1.327 3.01 3.01 0 0 1-.164-1.708c.111-.573.387-1.1.792-1.513a2.88 2.88 0 0 1 1.484-.809 2.844 2.844 0 0 1 1.674.168c.529.224.981.603 1.3 1.089a2.998 2.998 0 0 1-.36 3.732 2.868 2.868 0 0 1-2.049.866Zm11.78-5.233a1.28 1.28 0 0 0-.211-.494 1.25 1.25 0 0 0-.395-.36l-2.875-1.673-.011-3.305a1.288 1.288 0 0 0-.44-.962 11.941 11.941 0 0 0-3.932-2.26 1.218 1.218 0 0 0-1.001.094l-2.915 1.66L9.084 1.16a1.224 1.224 0 0 0-1.003-.095 11.948 11.948 0 0 0-3.932 2.267 1.264 1.264 0 0 0-.439.96l-.014 3.308-2.871 1.67a1.25 1.25 0 0 0-.395.36 1.28 1.28 0 0 0-.21.495 11.916 11.916 0 0 0 0 4.55 1.251 1.251 0 0 0 .605.854l2.878 1.674.011 3.305a1.288 1.288 0 0 0 .44.962c1.159 1 2.493 1.767 3.932 2.26a1.218 1.218 0 0 0 1.001-.094L12 21.977l2.912 1.662a1.224 1.224 0 0 0 1.003.095 11.947 11.947 0 0 0 3.932-2.267 1.265 1.265 0 0 0 .439-.96l.014-3.308 2.878-1.67c.155-.09.29-.212.394-.36a1.28 1.28 0 0 0 .21-.495c.292-1.503.292-3.049-.001-4.55Zm-2.34 3.503-2.782 1.612c-.198.115-.36.282-.47.485a5.788 5.788 0 0 1-.177.304c-.122.2-.188.43-.189.666l-.014 3.201a9.455 9.455 0 0 1-2.18 1.253l-2.81-1.603a1.223 1.223 0 0 0-.606-.162h-.386a1.23 1.23 0 0 0-.635.16l-2.812 1.6a9.498 9.498 0 0 1-2.186-1.247l-.011-3.193a1.286 1.286 0 0 0-.19-.667 7.93 7.93 0 0 1-.175-.304 1.247 1.247 0 0 0-.47-.481l-2.783-1.622a9.316 9.316 0 0 1 0-2.454l2.781-1.612c.197-.115.36-.282.47-.484.057-.105.116-.205.177-.305.122-.2.188-.43.189-.666l.011-3.201a9.451 9.451 0 0 1 2.18-1.25l2.81 1.604c.194.111.414.167.636.16h.356c.222.006.44-.049.635-.159l2.812-1.603a9.493 9.493 0 0 1 2.185 1.248l.012 3.192c0 .236.067.467.19.667.06.099.12.201.175.304.11.201.273.368.47.481l2.783 1.618c.11.815.11 1.642.003 2.458Z" fill="currentColor"></path>
        </svg>